<svg width="23" height="23" viewBox="0 0 23 23" fill="none" xmlns="http://www.w3.org/2000/svg">
<path d="M22.28 11.2955C22.28 5.21975 17.3558 0.295532 11.28 0.295532C5.20422 0.295532 0.279999 5.21975 0.279999 11.2955C0.279999 17.3713 5.20422 22.2955 11.28 22.2955C11.3445 22.2955 11.4089 22.2955 11.4734 22.2912V13.7319H9.11008V10.9776H11.4734V8.94944C11.4734 6.59905 12.9085 5.31858 15.0054 5.31858C16.0109 5.31858 16.8745 5.39163 17.1237 5.426V7.88381H15.68C14.5413 7.88381 14.3179 8.42522 14.3179 9.22014V10.9733H17.0464L16.6898 13.7276H14.3179V21.8701C18.9155 20.551 22.28 16.3186 22.28 11.2955Z" fill="#58585A"/>
</svg>
