<svg width="23" height="23" viewBox="0 0 23 23" fill="none" xmlns="http://www.w3.org/2000/svg">
<path fill-rule="evenodd" clip-rule="evenodd" d="M0.279999 11.2955C0.279999 5.22133 5.2058 0.295532 11.28 0.295532C17.3542 0.295532 22.28 5.22133 22.28 11.2955C22.28 17.3697 17.3542 22.2955 11.28 22.2955C5.2058 22.2955 0.279999 17.3697 0.279999 11.2955ZM5.40453 16.9244H8.08353V8.86461H5.40453V16.9244ZM6.74411 7.76404H6.72665C5.82767 7.76404 5.24625 7.14519 5.24625 6.37175C5.24625 5.58086 5.84546 4.97913 6.7619 4.97913C7.67834 4.97913 8.24231 5.58086 8.25977 6.37175C8.25977 7.14519 7.67834 7.76404 6.74411 7.76404ZM15.0648 16.9244H17.7434V12.3029C17.7434 9.82738 16.4218 8.67545 14.6593 8.67545C13.2379 8.67545 12.601 9.4566 12.2449 10.0058V8.86461H9.56612C9.6012 9.62076 9.56612 16.9244 9.56612 16.9244H12.2449V12.4235C12.2449 12.1826 12.2622 11.9419 12.3331 11.7697C12.5268 11.2885 12.9675 10.79 13.7076 10.79C14.6769 10.79 15.0648 11.529 15.0648 12.6126V16.9244Z" fill="#58585A"/>
</svg>
