<svg width="16" height="17" viewBox="0 0 16 17" fill="none" xmlns="http://www.w3.org/2000/svg">
<path fill-rule="evenodd" clip-rule="evenodd" d="M7.85125 9.27203C7.40525 9.27203 6.96058 9.12469 6.58858 8.83003L3.59858 6.41936C3.38325 6.24603 3.34991 5.93069 3.52258 5.71603C3.69658 5.50203 4.01125 5.46803 4.22591 5.64069L7.21325 8.04869C7.58858 8.34603 8.11725 8.34603 8.49525 8.04603L11.4526 5.64203C11.6672 5.46669 11.9819 5.50003 12.1566 5.71469C12.3306 5.92869 12.2979 6.24336 12.0839 6.41803L9.12125 8.82603C8.74658 9.12336 8.29858 9.27203 7.85125 9.27203Z" fill="#58585A"/>
<mask id="mask0_2_348" style="mask-type:alpha" maskUnits="userSpaceOnUse" x="0" y="1" width="15" height="14">
<path d="M0.666672 1.62878H14.9999V14.6288H0.666672V1.62878Z" fill="white"/>
</mask>
<g mask="url(#mask0_2_348)">
<path fill-rule="evenodd" clip-rule="evenodd" d="M4.55923 13.6288H11.1059C11.1072 13.6275 11.1126 13.6288 11.1166 13.6288C11.8772 13.6288 12.5519 13.3568 13.0692 12.8401C13.6699 12.2421 13.9999 11.3828 13.9999 10.4208V5.84212C13.9999 3.98012 12.7826 2.62878 11.1059 2.62878H4.56056C2.8839 2.62878 1.66656 3.98012 1.66656 5.84212V10.4208C1.66656 11.3828 1.99723 12.2421 2.59723 12.8401C3.11456 13.3568 3.7899 13.6288 4.5499 13.6288H4.55923ZM4.5479 14.6288C3.51923 14.6288 2.60056 14.2555 1.89123 13.5488C1.10123 12.7608 0.666565 11.6501 0.666565 10.4208V5.84212C0.666565 3.44012 2.34056 1.62878 4.56056 1.62878H11.1059C13.3259 1.62878 14.9999 3.44012 14.9999 5.84212V10.4208C14.9999 11.6501 14.5652 12.7608 13.7752 13.5488C13.0666 14.2548 12.1472 14.6288 11.1166 14.6288H11.1059H4.56056H4.5479Z" fill="#58585A"/>
</g>
</svg>
