<svg width="16" height="17" viewBox="0 0 16 17" fill="none" xmlns="http://www.w3.org/2000/svg">
<path fill-rule="evenodd" clip-rule="evenodd" d="M4.43837 1.62914C5.18303 1.63914 5.7137 2.19714 6.38503 2.90314C6.55103 3.07714 6.73037 3.26714 6.93103 3.46714C7.9037 4.44048 7.62703 5.23448 7.4037 5.87181C7.16103 6.56714 6.95103 7.16714 8.20837 8.42448C9.4657 9.68181 10.065 9.47181 10.7597 9.22714C11.3977 9.00448 12.1897 8.72581 13.1644 9.69914C13.3624 9.89714 13.549 10.0745 13.7224 10.2391C14.431 10.9138 14.991 11.4465 15.0005 12.1931C15.0077 12.8291 14.621 13.4785 13.6664 14.4331L13.2437 14.1465L13.6017 14.4951C13.3904 14.7118 12.8284 15.2891 11.7277 15.2958H11.7077C10.0464 15.2958 7.88037 13.9731 5.2697 11.3631C2.64837 8.74248 1.3237 6.56981 1.33364 4.90514C1.3397 3.80514 1.91637 3.24181 2.13303 3.03048L2.15153 3.01028L2.19637 2.96514C3.15303 2.00848 3.81037 1.61514 4.43837 1.62914ZM4.4257 2.62914H4.42037C4.12099 2.62914 3.66634 2.92914 3.03225 3.54507L2.90492 3.67012L2.90637 3.66981C2.90717 3.66981 2.89549 3.68229 2.87694 3.7012L2.83237 3.74581C2.67103 3.90248 2.33703 4.22848 2.33367 4.91048C2.32837 5.86448 2.9557 7.63581 5.97637 10.6558C8.98237 13.6611 10.751 14.2958 11.7077 14.2958H11.7217C12.4037 14.2918 12.729 13.9578 12.8857 13.7971C12.933 13.7485 12.9717 13.7118 12.999 13.6898C13.6637 13.0211 14.0037 12.5245 14.0004 12.2051C13.9964 11.8798 13.5917 11.4958 13.0324 10.9631C12.8544 10.7945 12.661 10.6098 12.457 10.4058C11.9277 9.87848 11.667 9.96848 11.0904 10.1711C10.2937 10.4505 9.20237 10.8331 7.5017 9.13114C5.80037 7.43048 6.1817 6.33914 6.4597 5.54181C6.66103 4.96581 6.75303 4.70381 6.22437 4.17448C6.0177 3.96781 5.8317 3.77181 5.66037 3.59181C5.13103 3.03581 4.74903 2.63381 4.4257 2.62914ZM10.1644 4.00081C11.5518 4.27014 12.6231 5.34081 12.8931 6.72881C12.9458 7.00081 12.7691 7.26281 12.4984 7.31548C12.4658 7.32148 12.4338 7.32481 12.4018 7.32481C12.1671 7.32481 11.9584 7.15948 11.9118 6.92081C11.7198 5.93414 10.9591 5.17348 9.97377 4.98214C9.70243 4.92948 9.52577 4.66748 9.57843 4.39614C9.6311 4.12481 9.89777 3.94748 10.1644 4.00081ZM10.1245 1.63294C12.8432 1.93494 14.9545 4.04361 15.2592 6.76161C15.2898 7.03628 15.0925 7.28361 14.8185 7.31428C14.7998 7.31628 14.7805 7.31761 14.7618 7.31761C14.5105 7.31761 14.2945 7.12894 14.2658 6.87361C14.0132 4.62294 12.2652 2.87628 10.0138 2.62628C9.73983 2.59561 9.54183 2.34894 9.5725 2.07428C9.6025 1.80028 9.84717 1.59828 10.1245 1.63294Z" fill="#58585A"/>
</svg>
