<svg width="28" height="23" viewBox="0 0 28 23" fill="none" xmlns="http://www.w3.org/2000/svg">
<g id="Group 27">
<path id="Combined Shape" fill-rule="evenodd" clip-rule="evenodd" d="M2.13125 1.1473C4.83716 4.56121 8.8515 6.70575 13.2137 7.06781C12.8159 5.40632 13.2189 3.65575 14.3043 2.33035C15.3897 1.00496 17.0343 0.255267 18.755 0.30151C20.3555 0.227452 21.91 0.844346 23.0175 1.99308C24.2658 1.96344 25.4674 1.51639 26.4275 0.724404C26.0763 1.92252 25.3247 2.96645 24.2962 3.68466C25.3517 3.69042 26.3869 3.39698 27.28 2.83887C26.7178 4.17742 25.6454 5.2414 24.2962 5.79913C24.528 10.021 23.0277 14.1563 20.1371 17.2631C17.2465 20.37 13.2116 22.184 8.95125 22.292C5.77813 22.3591 2.65844 21.4747 0 19.7546C2.84232 19.7868 5.64056 19.0562 8.09875 17.6402C5.86283 17.2921 3.94658 15.8662 2.98375 13.8341C3.85566 13.8567 4.72385 13.7131 5.54125 13.4112C3.04354 12.6246 1.22103 10.4877 0.8525 7.9136C1.63979 8.36155 2.50927 8.64909 3.41 8.75938C1.14656 6.88403 0.603212 3.64959 2.13125 1.1473Z" fill="#58585A"/>
</g>
</svg>
