<svg width="23" height="23" viewBox="0 0 23 23" fill="none" xmlns="http://www.w3.org/2000/svg">
<path fill-rule="evenodd" clip-rule="evenodd" d="M11.2772 0.295532H11.2827C17.3479 0.295532 22.28 5.23041 22.28 11.2955C22.28 17.3607 17.3479 22.2955 11.2827 22.2955C9.04562 22.2955 6.97075 21.63 5.23137 20.4778L1.00325 21.8294L2.37412 17.7429C1.0555 15.932 0.279999 13.7018 0.279999 11.2955C0.279999 5.22903 5.21212 0.295532 11.2772 0.295532ZM15.5246 17.3813C16.3647 17.1998 17.418 16.5783 17.6834 15.8289C17.9487 15.0782 17.9487 14.4388 17.8717 14.3027C17.8096 14.1947 17.6625 14.1239 17.4431 14.0182C17.3859 13.9907 17.3239 13.9608 17.2571 13.9273C16.934 13.7664 15.3624 12.9895 15.0654 12.8864C14.7739 12.7764 14.4961 12.8149 14.2761 13.1257C14.2343 13.1842 14.1925 13.243 14.151 13.3013C13.8856 13.6746 13.6296 14.0347 13.4167 14.2642C13.2229 14.4704 12.9066 14.4965 12.6412 14.3865C12.6123 14.3745 12.5792 14.3611 12.542 14.3461C12.1218 14.1764 11.1899 13.8 10.0617 12.7957C9.11025 11.9487 8.464 10.894 8.277 10.5778C8.0934 10.2605 8.25177 10.0745 8.39813 9.90257C8.40084 9.89939 8.40355 9.89621 8.40625 9.89303C8.50062 9.77627 8.59219 9.67905 8.68422 9.58134C8.75043 9.51105 8.81687 9.44052 8.88475 9.36228C8.89483 9.35067 8.90463 9.3394 8.91418 9.32842C9.05832 9.16268 9.14415 9.06399 9.24087 8.85766C9.35087 8.64453 9.2725 8.42453 9.19412 8.26228C9.1402 8.14866 8.80709 7.34043 8.52113 6.64661C8.39876 6.34971 8.28503 6.07377 8.2055 5.88216C7.99237 5.37203 7.83012 5.35278 7.507 5.33903C7.4971 5.33854 7.4871 5.33803 7.47699 5.33752C7.37486 5.33235 7.26237 5.32666 7.1385 5.32666C6.71775 5.32666 6.27912 5.45041 6.01375 5.72128C6.00448 5.73075 5.99481 5.74058 5.98478 5.75079C5.64527 6.09607 4.889 6.86521 4.889 8.39841C4.889 9.93458 5.97897 11.4213 6.18064 11.6963C6.1862 11.7039 6.19108 11.7106 6.19525 11.7163C6.20738 11.7322 6.23026 11.7653 6.26354 11.8135C6.67533 12.4099 8.68102 15.3144 11.6719 16.5535C14.1991 17.6013 14.9499 17.5037 15.5246 17.3813Z" fill="#58585A"/>
</svg>
