<svg width="25" height="18" viewBox="0 0 25 18" fill="none" xmlns="http://www.w3.org/2000/svg">
<path fill-rule="evenodd" clip-rule="evenodd" d="M21.92 0.815399C22.96 1.09549 23.7801 1.91545 24.0599 2.95563C24.5801 4.85548 24.5601 8.81554 24.5601 8.81554C24.5601 8.81554 24.5601 12.7554 24.0602 14.6554C23.7801 15.6955 22.9602 16.5154 21.92 16.7954C20.02 17.2955 12.4201 17.2955 12.4201 17.2955C12.4201 17.2955 4.83995 17.2955 2.92009 16.7755C1.87991 16.4954 1.0601 15.6755 0.780008 14.6354C0.279999 12.7554 0.279999 8.79553 0.279999 8.79553C0.279999 8.79553 0.279999 4.85548 0.780008 2.95563C1.0598 1.9156 1.89991 1.07548 2.91994 0.795689C4.81994 0.295532 12.4198 0.295532 12.4198 0.295532C12.4198 0.295532 20.02 0.295532 21.92 0.815399ZM16.32 8.79553L10.0001 5.15558V12.4355L16.32 8.79553Z" fill="#58585A"/>
</svg>
